PathFileType	4	(X/Y/Z)	s07c0101.trc
DataRate	CameraRate	NumFrames	NumMarkers	Units	OrigDataRate	OrigDataStartFrame	OrigNumFrames
200	200	6	48	mm	200	0	2000
Frame#	Time	racr			lacr			c7			jug			rlel			rdr			llel			ldr			s2			lic			ric			lasi			rasi			rpsi			lpsi			rgt			lgt			rth1			rth2			rth3			rth4			rlfc			rmfc			rsh1			rsh2			rsh3			rsh4			rlmal			rcal			rtoe			rmt5			lth1			lth2			lth4			lth3			llfc			lmfc			lsh1			lsh2			lsh3			lsh4			llmal			lcal			ltoe			lmt5			SBIKE			LBIKE			RBIKE			
		X1	Y1	Z1	X2	Y2	Z2	X3	Y3	Z3	X4	Y4	Z4	X5	Y5	Z5	X6	Y6	Z6	X7	Y7	Z7	X8	Y8	Z8	X9	Y9	Z9	X10	Y10	Z10	X11	Y11	Z11	X12	Y12	Z12	X13	Y13	Z13	X14	Y14	Z14	X15	Y15	Z15	X16	Y16	Z16	X17	Y17	Z17	X18	Y18	Z18	X19	Y19	Z19	X20	Y20	Z20	X21	Y21	Z21	X22	Y22	Z22	X23	Y23	Z23	X24	Y24	Z24	X25	Y25	Z25	X26	Y26	Z26	X27	Y27	Z27	X28	Y28	Z28	X29	Y29	Z29	X30	Y30	Z30	X31	Y31	Z31	X32	Y32	Z32	X33	Y33	Z33	X34	Y34	Z34	X35	Y35	Z35	X36	Y36	Z36	X37	Y37	Z37	X38	Y38	Z38	X39	Y39	Z39	X40	Y40	Z40	X41	Y41	Z41	X42	Y42	Z42	X43	Y43	Z43	X44	Y44	Z44	X45	Y45	Z45	X46	Y46	Z46	X47	Y47	Z47	X48	Y48	Z48	
0	0.0000	445.810688	1459.747107	-108.029665	437.961188	1441.652970	-379.695736	402.487146	1491.364506	-246.493354	379.051476	1350.944217	-240.025276	555.012967	1145.015364	-21.416906	723.503341	905.550879	-78.983403	537.398720	1131.452765	-446.025947	725.546800	900.138127	-407.622755	-144.240643	1211.503728	-248.304188	21.522365	1261.467831	-387.625387	23.902557	1244.029772	-95.740232	53.811419	1181.200542	-360.827622	37.388374	1190.518529	-114.358691	-117.272845	1249.621431	-195.768609	-104.133673	1259.640768	-303.736364	-33.594770	1131.271975	-49.189542	-37.055237	1104.767846	-419.969763	96.899840	1074.957755	-45.060174	183.918762	1066.419715	-54.297647	256.081470	1020.131269	-50.820613	194.027049	1096.933324	-72.545572	381.856184	941.384427	-80.371195	384.602191	923.548739	-176.267017	336.000973	803.734640	-61.518379	326.995509	716.881331	-82.416585	278.899541	644.706980	-81.238997	344.026332	716.327191	-118.664039	224.706743	522.132168	-87.778199	155.191442	492.692475	-118.114094	437.094293	423.208511	-127.036712	354.137630	403.233313	-57.125975	26.110173	999.839726	-430.600591	97.704560	949.605269	-435.998908	126.385844	970.984106	-426.697114	134.660778	867.068007	-433.258405	228.304271	715.423613	-403.804836	223.256821	700.113409	-306.208896	140.543205	592.216712	-419.956287	108.912395	515.379155	-396.709117	40.316198	457.062086	-401.571585	114.906992	517.307308	-355.575209	-46.410255	356.656326	-392.256747	-122.878110	344.369330	-358.254164	139.682333	222.966939	-357.878826	54.868010	228.643053	-420.035493	-264.142268	977.936221	-235.731332	-82.571664	79.083916	-434.812425	-82.289618	78.838825	-37.193221	
1	0.0050	445.807569	1459.721167	-108.023581	437.932693	1441.651568	-379.713677	402.476487	1491.357083	-246.466858	379.016789	1350.946548	-240.011969	555.009550	1145.013865	-21.396072	723.478684	905.569957	-79.004170	537.408049	1131.449138	-446.022446	725.546541	900.142045	-407.615527	-144.250951	1211.511739	-248.296532	21.475547	1261.474737	-387.606362	23.888218	1244.080436	-95.727589	53.824809	1181.217899	-360.849573	37.365021	1190.517279	-114.313191	-117.273358	1249.603825	-195.759283	-104.125418	1259.657765	-303.733453	-33.610674	1131.268495	-49.195709	-37.064889	1104.785487	-419.975629	96.892869	1074.935680	-45.058170	183.910025	1066.411339	-54.292943	256.063232	1020.120664	-50.801020	194.029358	1096.908753	-72.549105	381.846429	941.367305	-80.374420	384.605256	923.544218	-176.243285	335.990278	803.725435	-61.523325	326.995430	716.878063	-82.419885	278.888661	644.711855	-81.227653	344.019752	716.316396	-118.669320	224.699047	522.135315	-87.786885	155.186512	492.680346	-118.085071	437.089478	423.213867	-127.032170	354.125135	403.225217	-57.132958	26.116253	999.862403	-430.609425	97.723247	949.621906	-435.995322	126.388687	971.003819	-426.709411	134.674957	867.077174	-433.257241	228.312209	715.433889	-403.802615	223.258202	700.106570	-306.203170	140.548107	592.226404	-419.969642	108.931154	515.386718	-396.703670	40.330157	457.073587	-401.593211	114.924175	517.300897	-355.569415	-46.402022	356.671328	-392.257935	-122.871821	344.381911	-358.244281	139.669237	222.950359	-357.873674	54.861878	228.636850	-420.036286	-264.142969	977.930712	-235.720858	-82.576720	79.082294	-434.809098	-82.278039	78.811303	-37.187502	
2	0.0100	445.818004	1459.717368	-108.000904	437.928054	1441.633668	-379.709338	402.468707	1491.349088	-246.472813	379.018926	1350.951797	-240.011993	554.992968	1145.010147	-21.353245	723.486391	905.561938	-78.982265	537.397681	1131.445402	-446.017647	725.566635	900.156437	-407.610657	-144.244575	1211.513592	-248.282238	21.493459	1261.497509	-387.611830	23.889199	1244.075659	-95.717140	53.820320	1181.250073	-360.818485	37.376577	1190.531409	-114.304011	-117.259514	1249.613079	-195.737329	-104.133593	1259.665248	-303.717719	-33.596714	1131.260422	-49.185161	-37.049351	1104.785505	-419.961665	96.884685	1074.924496	-45.029364	183.913935	1066.398954	-54.286397	256.057728	1020.102165	-50.801511	194.037561	1096.898833	-72.540141	381.854175	941.357171	-80.368495	384.597752	923.549359	-176.272146	335.987862	803.706595	-61.521375	326.993902	716.867038	-82.411617	278.873385	644.700838	-81.230766	344.019198	716.297932	-118.630042	224.695158	522.111639	-87.780256	155.189129	492.669445	-118.094782	437.092173	423.213040	-127.029439	354.115465	403.215821	-57.132549	26.133292	999.867993	-430.599812	97.727482	949.629640	-435.984993	126.400700	971.015254	-426.707261	134.696178	867.073194	-433.252416	228.314657	715.442150	-403.812623	223.275799	700.105806	-306.212303	140.556378	592.229174	-419.961307	108.934982	515.386946	-396.699181	40.335860	457.073633	-401.570404	114.927748	517.291540	-355.571235	-46.401330	356.674710	-392.252425	-122.866353	344.388860	-358.251268	139.672620	222.963149	-357.862712	54.869209	228.648330	-420.019143	-264.138075	977.938590	-235.726442	-82.579556	79.084816	-434.816224	-82.299520	78.840260	-37.183296	
3	0.0150	445.789155	1459.689777	-108.001185	437.923832	1441.622919	-379.709961	402.484638	1491.323030	-246.466345	379.015508	1350.950643	-239.993266	554.768514	1145.597898	-20.846197	723.463224	905.568875	-78.972196	537.391300	1131.440825	-446.011555	725.620986	904.360449	-414.087776	-144.241784	1211.508538	-248.275040	21.260154	1261.523798	-387.728642	23.503822	1244.038462	-95.798497	53.849887	1181.277930	-360.840170	37.362331	1190.550397	-114.273158	-117.265074	1249.600166	-195.722589	-104.119166	1259.662131	-303.712070	-33.597055	1131.259888	-49.189676	-36.681918	1104.863597	-419.274517	97.015374	1074.773123	-45.005727	183.908170	1066.382642	-54.281841	255.938499	1019.989462	-50.834964	194.035770	1096.874613	-72.533052	381.915463	941.275484	-80.340402	383.455452	925.110947	-181.940525	335.978121	803.702242	-61.505103	326.953429	716.802352	-82.380167	278.922460	644.565238	-81.204491	344.038621	716.164878	-118.623691	224.350214	522.730971	-86.967933	155.201662	492.650230	-118.111858	436.920942	423.710360	-126.617038	354.240319	403.083759	-57.151955	26.147840	999.867188	-430.600965	98.082332	948.585347	-435.238213	126.424911	971.131454	-426.926384	134.706060	867.078334	-433.263205	228.319050	715.431168	-403.794020	223.290499	700.097484	-306.196320	140.543878	592.231055	-419.956349	109.028034	515.271178	-396.758202	40.159133	457.308261	-401.493829	115.820510	517.250727	-355.345259	-46.401151	356.680820	-392.254839	-122.818461	344.457324	-358.210573	139.679279	222.974899	-357.868697	54.847689	228.655838	-420.031141	-264.245253	977.954017	-236.103360	-82.579515	79.070453	-434.797767	-82.296334	78.819724	-37.185425	
4	0.0200	445.771035	1459.883090	-107.811957	431.568144	1437.622793	-366.144136	402.507302	1491.338625	-246.469400	387.603346	1349.798497	-232.948248	554.808086	1145.529607	-20.815253	723.706118	905.685475	-78.818564	539.230620	1129.356365	-440.293096	725.621339	904.378880	-414.130302	-144.170872	1211.542608	-248.370666	16.054658	1255.906219	-373.014196	23.448119	1244.255836	-95.765430	46.517861	1176.818075	-347.638966	37.602460	1190.536650	-113.917216	-117.250571	1249.757970	-195.628949	-104.094579	1259.726168	-303.850276	-33.704600	1131.480095	-49.081438	-35.285113	1102.596792	-413.250473	96.862944	1074.956329	-44.995786	183.836974	1066.516087	-54.279737	256.164227	1020.083617	-50.667583	194.054580	1097.115457	-72.508901	381.926798	941.351906	-80.242935	382.708245	922.600383	-176.030035	335.831149	803.876319	-61.444120	330.117351	715.980778	-77.254538	279.159237	644.586221	-81.108878	346.013731	714.098371	-112.656076	224.364557	522.698764	-87.020516	155.149219	492.675317	-118.066280	436.857721	423.608434	-126.683358	353.975059	403.324476	-57.043576	26.231306	999.965192	-430.493759	99.489467	946.068040	-429.512291	126.461011	971.165361	-427.007897	136.338384	864.443441	-426.383774	229.788755	712.421016	-397.473198	225.377484	699.839686	-302.512569	142.636167	589.937132	-415.084763	111.485936	513.233461	-391.979435	40.534365	457.056152	-400.737173	115.416533	517.597806	-355.360143	-43.734482	351.287951	-383.959211	-122.878223	344.488678	-358.197251	141.259219	218.500126	-351.030629	57.639124	223.032007	-411.838983	-264.233935	977.916504	-236.016267	-82.362186	78.997073	-434.611508	-82.478458	78.983721	-37.356969	
5	0.0250	445.841061	1459.922973	-107.730552	438.109285	1442.004983	-380.062821	402.571369	1491.238659	-246.407818	379.201842	1351.157422	-240.212057	554.572866	1145.320373	-21.130683	723.778324	905.594860	-79.149406	537.438249	1131.670750	-446.319880	725.593857	904.475450	-414.086704	-144.135574	1211.502986	-248.353526	21.262607	1261.524669	-387.739065	23.451718	1244.293139	-95.806851	53.793215	1181.418508	-360.760081	37.358087	1190.664772	-114.322077	-117.296027	1249.737157	-195.647161	-104.059289	1259.712052	-303.712692	-33.700164	1131.463454	-49.073304	-37.070652	1104.776821	-420.036104	96.850011	1074.939111	-44.984224	183.847422	1066.489073	-54.259085	255.838084	1020.142146	-50.783025	194.013133	1096.897022	-72.586588	381.962626	941.303318	-80.273641	382.049428	922.486350	-176.237889	335.847685	803.833252	-61.435739	326.795414	716.959683	-82.424309	278.712916	644.770912	-81.109057	343.928253	716.382053	-118.313658	224.451196	522.542374	-87.252423	155.231729	492.543076	-118.112518	436.844523	423.631022	-126.622354	354.036391	403.307888	-57.042157	26.165044	999.904499	-430.617283	98.089149	948.625273	-435.237312	126.566632	971.334955	-427.367481	134.680715	867.176116	-433.408188	228.301956	715.512347	-403.824071	223.117025	700.394529	-306.124848	140.488219	592.328011	-420.050028	108.949574	515.417706	-396.741705	40.171786	457.246853	-401.685260	115.635726	517.446067	-355.209230	-46.469452	356.689138	-392.189514	-122.951452	344.376664	-358.107871	139.625120	222.960047	-357.828315	54.847602	228.705590	-420.040951	-264.295570	977.954869	-235.982522	-82.701610	78.901020	-434.952153	-82.452446	79.023395	-37.310599	
